<svg xmlns="http://www.w3.org/2000/svg" viewBox="0 0 800 200" width="800" height="200">
  <defs>
    <linearGradient id="bgGradient" x1="0%" y1="0%" x2="100%" y2="0%">
      <stop offset="0%" style="stop-color:#f8fafc;stop-opacity:1" />
      <stop offset="100%" style="stop-color:#e2e8f0;stop-opacity:1" />
    </linearGradient>
  </defs>
  
  <!-- Background -->
  <rect width="800" height="200" fill="url(#bgGradient)" />
  
  <!-- Microphone Icon -->
  <g transform="translate(100, 60)">
    <rect x="10" y="20" width="20" height="40" rx="10" fill="#475569" />
    <rect x="5" y="70" width="30" height="8" rx="4" fill="#475569" />
    <line x1="20" y1="78" x2="20" y2="90" stroke="#475569" stroke-width="3" stroke-linecap="round" />
    <path d="M 0 45 Q 0 35 10 35 Q 30 35 30 45 Q 30 55 20 55 Q 10 55 0 45" fill="none" stroke="#475569" stroke-width="2" />
  </g>
  
  <!-- Sound Waves -->
  <g transform="translate(160, 80)">
    <path d="M 0 20 Q 10 10 20 20 Q 30 30 40 20" fill="none" stroke="#64748b" stroke-width="2" opacity="0.6" />
    <path d="M 0 20 Q 15 5 30 20 Q 45 35 60 20" fill="none" stroke="#64748b" stroke-width="2" opacity="0.4" />
    <path d="M 0 20 Q 20 0 40 20 Q 60 40 80 20" fill="none" stroke="#64748b" stroke-width="2" opacity="0.2" />
  </g>
  
  <!-- Title Text -->
  <text x="320" y="110" font-family="system-ui, -apple-system, sans-serif" font-size="36" font-weight="600" fill="#1e293b">
    Elevator Pitch Coach
  </text>
  
  <!-- Subtitle -->
  <text x="320" y="140" font-family="system-ui, -apple-system, sans-serif" font-size="16" fill="#64748b">
    Practice your pitch. Get AI feedback. Improve your delivery.
  </text>
  
  <!-- Decorative Elements -->
  <circle cx="680" cy="60" r="3" fill="#3b82f6" opacity="0.6" />
  <circle cx="700" cy="80" r="2" fill="#3b82f6" opacity="0.4" />
  <circle cx="720" cy="70" r="2.5" fill="#3b82f6" opacity="0.5" />
  
  <circle cx="680" cy="140" r="2" fill="#10b981" opacity="0.6" />
  <circle cx="705" cy="130" r="3" fill="#10b981" opacity="0.4" />
  <circle cx="730" cy="145" r="2" fill="#10b981" opacity="0.5" />
</svg>
